<svg xmlns="http://www.w3.org/2000/svg" id="uuid-21766a89-474f-4b2e-a63d-fb3283502139" viewBox="0 0 200.19 200.19">
<path d="M175.17,0H25.02C11.21,0,0,11.21,0,25.02V175.17c0,13.82,11.21,25.02,25.02,25.02H175.17c13.82,0,25.02-11.21,25.02-25.02V25.02c0-13.82-11.21-25.02-25.02-25.02Zm-8.59,88.2c-13.12,.03-25.92-4.06-36.59-11.7v53.26c0,26.75-21.71,48.44-48.46,48.43-26.75,0-48.44-21.71-48.43-48.46,0-26.75,21.71-48.44,48.46-48.43,2.22,0,4.44,.15,6.63,.46v26.79c-11.72-3.69-24.2,2.83-27.89,14.54-3.69,11.72,2.83,24.2,14.54,27.89,11.72,3.69,24.2-2.83,27.89-14.54,.68-2.16,1.02-4.41,1.02-6.67V25.64h26.23c-.02,2.21,.17,4.43,.55,6.61,1.84,9.84,7.65,18.49,16.07,23.91,5.92,3.92,12.87,6,19.97,6v26.04Z" fill="#fff"/>
</svg>